<svg width="500" height="150" viewBox="0 0 500 150" xmlns="http://www.w3.org/2000/svg">
  <style>
    .text { font-family: 'Noto Sans KR', sans-serif; font-weight: 900; fill: #15447a; }
  </style>
  <g transform="translate(10, 10)">
    <!-- Stylized D Loop -->
    <path d="M60,120 C20,120 0,90 0,60 C0,30 20,0 60,0 C90,0 110,20 110,50 C110,80 90,100 70,100 L70,120 Z M60,95 C80,95 90,80 90,50 C90,20 80,15 60,15 C40,15 20,30 20,60 C20,90 40,95 60,95 Z" fill="#15447a"/>
    <!-- Arrow -->
    <path d="M15,110 L125,15" stroke="#15447a" stroke-width="12" stroke-linecap="round"/>
    <path d="M125,15 L110,20 L120,30 Z" fill="#15447a"/>
    <circle cx="135" cy="5" r="7" fill="#15447a"/>
    
    <!-- Text -->
    <text x="160" y="60" class="text" font-size="52">대경데이터정책연구원</text>
    <text x="160" y="120" class="text" font-size="48">DDPI</text>
  </g>
</svg>
